<svg xmlns="http://www.w3.org/2000/svg" width="170" height="170" viewBox="0 0 170 170">
  <path id="Path_93" data-name="Path 93" d="M231.671,297.489a39.082,39.082,0,0,0,12.579,21.075,33.568,33.568,0,0,0,21.808,8.164h69.059a33.569,33.569,0,0,0,21.808-8.164,39.085,39.085,0,0,0,12.579-21.075l15.867-69.29h0a8.274,8.274,0,0,0-1.28-6.642,6.892,6.892,0,0,0-5.591-2.977H348.611L335.79,162.615c-.978-4.138-4.847-6.631-8.641-5.564s-6.077,5.286-5.1,9.424l11.969,52.1H267.154L279.125,166.4h0c.978-4.138-1.3-8.358-5.1-9.424s-7.663,1.425-8.641,5.564l-12.821,56.043H222.673a6.892,6.892,0,0,0-5.591,2.977,8.275,8.275,0,0,0-1.28,6.642Zm137.765-63.46L355.73,293.741a23.438,23.438,0,0,1-7.539,12.633,20.142,20.142,0,0,1-13.071,4.9H266.06a20.141,20.141,0,0,1-13.071-4.9,23.438,23.438,0,0,1-7.54-12.633l-13.706-59.713Z" transform="translate(-215.586 -156.728)" fill="#e8e9eb"/>
</svg>
