<svg xmlns="http://www.w3.org/2000/svg" width="16" height="16" viewBox="0 0 16 16">
  <path id="Path_46" data-name="Path 46" d="M217.1,169.976a3.678,3.678,0,0,0,1.184,1.984,3.159,3.159,0,0,0,2.053.768h6.5a3.159,3.159,0,0,0,2.053-.768,3.679,3.679,0,0,0,1.184-1.984l1.493-6.521h0a.779.779,0,0,0-.12-.625.649.649,0,0,0-.526-.28h-2.813l-1.207-5.267a.665.665,0,0,0-.813-.524.736.736,0,0,0-.48.887l1.127,4.9H220.44l1.127-4.911h0a.736.736,0,0,0-.48-.887.665.665,0,0,0-.813.524l-1.207,5.275h-2.813a.649.649,0,0,0-.526.28.779.779,0,0,0-.12.625ZM230.066,164l-1.29,5.62a2.206,2.206,0,0,1-.71,1.189,1.9,1.9,0,0,1-1.23.462h-6.5a1.9,1.9,0,0,1-1.23-.462,2.206,2.206,0,0,1-.71-1.189l-1.29-5.62Z" transform="translate(-215.586 -156.728)" fill="#fff"/>
</svg>
