<svg xmlns="http://www.w3.org/2000/svg" width="170" height="170" viewBox="0 0 170 170">
  <path id="noun-success-937535" d="M267,112a85,85,0,1,0,85,85A84.647,84.647,0,0,0,267,112Zm33.055,61.387L267,226.279a5.87,5.87,0,0,1-5.666,3.777c-1.889,0-4.722-.945-5.666-2.834l-17-21.721a7.215,7.215,0,0,1-1.889-4.722,6.456,6.456,0,0,1,6.611-6.611c1.889,0,4.722.945,5.666,2.834l12.277,15.111L288.72,166.78a.925.925,0,0,1,.945-.945A5.194,5.194,0,0,1,294.387,163,6.456,6.456,0,0,1,301,169.612c0,1.889,0,2.832-.943,3.777Z" transform="translate(-182 -112)" fill="#99b3c5"/>
</svg>
