<svg xmlns="http://www.w3.org/2000/svg" width="26" height="26" viewBox="0 0 26 26">
  <path id="Path_62" data-name="Path 62" d="M11154.248,55.863a3.786,3.786,0,0,1,.645-6.481V34.931a2.166,2.166,0,0,0-2.168-2.165,1.082,1.082,0,0,1,0-2.165,4.332,4.332,0,0,1,4.334,4.33V49.057a3.793,3.793,0,0,1,2.871,2.111h16.629a1.083,1.083,0,1,1,0,2.165h-16.3a3.794,3.794,0,0,1-6.008,2.53Zm1.121-4.219a1.624,1.624,0,1,0,1.146-.476A1.625,1.625,0,0,0,11155.369,51.644Zm7.107-2.64a3.25,3.25,0,0,1-3.252-3.248V34.931a3.25,3.25,0,0,1,3.252-3.247h10.834a3.247,3.247,0,0,1,3.248,3.247V45.756a3.247,3.247,0,0,1-3.248,3.248Zm-1.084-14.072V45.756a1.083,1.083,0,0,0,1.084,1.083h10.834a1.082,1.082,0,0,0,1.082-1.083V34.931a1.082,1.082,0,0,0-1.082-1.082h-4.334V37.1a1.084,1.084,0,0,1-2.168,0h0V33.849h-4.332A1.083,1.083,0,0,0,11161.393,34.931Z" transform="translate(-11151.643 -30.602)"/>
</svg>
