<svg xmlns="http://www.w3.org/2000/svg" width="70" height="70" viewBox="0 0 70 70">
  <g id="noun-empty-3560801_1_" data-name="noun-empty-3560801 (1)" transform="translate(-181.555 -111.33)">
    <path id="Path_92" data-name="Path 92" d="M246.669,111.33,236.2,121.795h0a31.405,31.405,0,0,0-44.169,44.141L181.555,176.4l4.933,4.93,10.472-10.465a31.4,31.4,0,0,0,44.123-44.093l10.472-10.465ZM192.12,146.353a24.439,24.439,0,0,1,39.039-19.535l-34.151,34.128a24.244,24.244,0,0,1-4.888-14.593Zm24.435,24.419a24.283,24.283,0,0,1-14.6-4.884L236.1,131.759a24.42,24.42,0,0,1-19.548,39.013Z" transform="translate(0 0)" fill="#e8e9eb"/>
  </g>
</svg>
