<svg xmlns="http://www.w3.org/2000/svg" width="21" height="20" viewBox="0 0 21 20">
  <path id="Path_91" data-name="Path 91" d="M13011.908-10102.8h0a4.391,4.391,0,0,1-3.094-1.273,4.337,4.337,0,0,1-1.281-3.074v-13.044a2.6,2.6,0,0,1,.769-1.845,2.633,2.633,0,0,1,1.855-.764h11.376a2.633,2.633,0,0,1,1.855.764,2.6,2.6,0,0,1,.769,1.845v11.3h3.5a.872.872,0,0,1,.619.255.865.865,0,0,1,.257.614v.87a4.334,4.334,0,0,1-1.282,3.074,4.391,4.391,0,0,1-3.093,1.273Zm-2.626-17.391v13.043a2.6,2.6,0,0,0,1.313,2.259,2.635,2.635,0,0,0,2.625,0,2.6,2.6,0,0,0,1.313-2.259v-.869a.873.873,0,0,1,.875-.87h7v-11.3a.867.867,0,0,0-.257-.615.88.88,0,0,0-.619-.255h-11.375A.873.873,0,0,0,13009.282-10120.193Zm6.125,15.651h8.751a2.638,2.638,0,0,0,1.856-.765,2.6,2.6,0,0,0,.768-1.844h-10.5A4.28,4.28,0,0,1,13015.407-10104.542Zm-3.5-6.087a.873.873,0,0,1-.876-.869.873.873,0,0,1,.876-.87h7.874a.873.873,0,0,1,.875.87.872.872,0,0,1-.875.869Zm0-3.479a.872.872,0,0,1-.876-.869.872.872,0,0,1,.876-.869h7.874a.872.872,0,0,1,.875.869.872.872,0,0,1-.875.869Zm0-3.479a.872.872,0,0,1-.876-.869.872.872,0,0,1,.876-.869h7.874a.872.872,0,0,1,.875.869.872.872,0,0,1-.875.869Z" transform="translate(-13007.533 10122.803)" fill="#006cb8"/>
</svg>
