<svg xmlns="http://www.w3.org/2000/svg" width="22" height="20" viewBox="0 0 22 20">
  <path id="Path_98" data-name="Path 98" d="M235.6,158.555a6.45,6.45,0,0,0-9.071,0l-.046.045-.046-.045a6.434,6.434,0,0,0-10.737,2.83,6.327,6.327,0,0,0,1.648,6.149l8.47,8.866a.922.922,0,0,0,1.329,0l8.452-8.847a6.325,6.325,0,0,0,0-9Zm-1.329,7.729-7.788,8.179-7.82-8.179a4.537,4.537,0,0,1,2.046-7.615,4.614,4.614,0,0,1,4.433,1.172l.7.686h0a.921.921,0,0,0,1.3,0l.692-.686h0a4.608,4.608,0,0,1,6.635-.136,4.519,4.519,0,0,1-.189,6.579Z" transform="translate(-215.481 -156.682)" fill="#006cb8"/>
</svg>
