<svg xmlns="http://www.w3.org/2000/svg" width="16" height="18" viewBox="0 0 16 18">
  <path id="Path_66" data-name="Path 66" d="M10779.077,155.573a.75.75,0,0,1,0-1.5h2.908a.75.75,0,0,1,0,1.5h-2.908Zm6.721-3h-10.524a1.98,1.98,0,0,1-1.376-.564,2.119,2.119,0,0,1-.169-2.833l1.207-1.5a2.3,2.3,0,0,0,.506-1.44v-1.162a5.8,5.8,0,0,1,.783-2.912,5.574,5.574,0,0,1,2.125-2.082v-.255a2.278,2.278,0,0,1,.773-1.719,2.134,2.134,0,0,1,1.772-.5,2.226,2.226,0,0,1,1.313.809,2.346,2.346,0,0,1,.5,1.49v.18a5.526,5.526,0,0,1,2.129,2.077,5.749,5.749,0,0,1,.779,2.914v1.162a2.3,2.3,0,0,0,.506,1.462l1.212,1.5a2.093,2.093,0,0,1,.275,2.183h0a2.043,2.043,0,0,1-.738.872,1.946,1.946,0,0,1-1.066.32Zm-10.525-1.5h10.525a.551.551,0,0,0,.5-.328.582.582,0,0,0-.078-.609l-1.211-1.5a3.824,3.824,0,0,1-.844-2.4v-1.162a4.148,4.148,0,0,0-.652-2.285,3.977,3.977,0,0,0-1.783-1.514.748.748,0,0,1-.473-.7V139.9a.808.808,0,0,0-.6-.829.767.767,0,0,0-.127,0,.711.711,0,0,0-.469.176.757.757,0,0,0-.259.574v.75a.749.749,0,0,1-.484.705,4.118,4.118,0,0,0-2.425,3.795v1.162a3.818,3.818,0,0,1-.844,2.4h0l-1.208,1.5a.579.579,0,0,0-.076.611h0A.542.542,0,0,0,10775.272,151.073Zm-2.527-5.469a.761.761,0,0,1-.213-.53,8.35,8.35,0,0,1,1.334-4.537l.247-.375a.713.713,0,0,1,.985-.173.764.764,0,0,1,.223,1.005l-.243.375a6.816,6.816,0,0,0-1.093,3.7.756.756,0,0,1-.213.53.712.712,0,0,1-.513.22h0A.717.717,0,0,1,10772.745,145.6Zm14.332-.53a6.812,6.812,0,0,0-1.087-3.7h0l-.243-.375a.761.761,0,0,1-.136-.576.748.748,0,0,1,.313-.5.708.708,0,0,1,.565-.108.731.731,0,0,1,.465.349l.247.375a8.356,8.356,0,0,1,1.331,4.537.728.728,0,1,1-1.455,0Z" transform="translate(-10772.532 -137.573)" fill="#006cb8"/>
</svg>
