<svg xmlns="http://www.w3.org/2000/svg" width="87" height="16" viewBox="0 0 87 16">
  <path id="Path_20" data-name="Path 20" d="M-5604.463-52.392a3.879,3.879,0,0,1-1.438-1.126.625.625,0,0,1-.154-.387.6.6,0,0,1,.291-.5.714.714,0,0,1,.387-.123.682.682,0,0,1,.566.29,2.434,2.434,0,0,0,.941.738,3.094,3.094,0,0,0,1.286.255,2.387,2.387,0,0,0,1.232-.325,2.339,2.339,0,0,0,.885-.954,3.161,3.161,0,0,0,.332-1.5V-56.7a3.193,3.193,0,0,1-1.134,1.188,3,3,0,0,1-1.591.428,3.466,3.466,0,0,1-1.833-.49,3.359,3.359,0,0,1-1.258-1.361,4.247,4.247,0,0,1-.449-1.976,4.018,4.018,0,0,1,.484-1.99,3.467,3.467,0,0,1,1.355-1.361,3.961,3.961,0,0,1,1.977-.49,3.9,3.9,0,0,1,1.957.49,3.653,3.653,0,0,1,.5.341l-.009-.818h1.353v3.664c0,.054,0,.108,0,.163v2.985a4.141,4.141,0,0,1-.484,1.99,3.6,3.6,0,0,1-1.363,1.415,3.829,3.829,0,0,1-1.986.519,4.386,4.386,0,0,1-1.851-.394Zm.616-8.78a2.333,2.333,0,0,0-.878.926,2.8,2.8,0,0,0-.318,1.34,2.756,2.756,0,0,0,.318,1.333,2.345,2.345,0,0,0,.878.919,2.436,2.436,0,0,0,1.265.332,2.436,2.436,0,0,0,1.266-.332,2.3,2.3,0,0,0,.872-.919,2.8,2.8,0,0,0,.311-1.333,2.846,2.846,0,0,0-.311-1.34,2.283,2.283,0,0,0-.872-.926,2.437,2.437,0,0,0-1.266-.332,2.437,2.437,0,0,0-1.265.331Zm-33.56,8.1a3.577,3.577,0,0,1-1.4-.282,3.581,3.581,0,0,1-1.143-.769,3.578,3.578,0,0,1-.77-1.142,3.566,3.566,0,0,1-.283-1.4v-7.739a3.573,3.573,0,0,1,.283-1.4,3.578,3.578,0,0,1,.77-1.142,3.579,3.579,0,0,1,1.143-.769,3.575,3.575,0,0,1,1.4-.282h7.744a3.576,3.576,0,0,1,1.4.282,3.578,3.578,0,0,1,1.143.769,3.581,3.581,0,0,1,.771,1.142,3.572,3.572,0,0,1,.282,1.4v7.737a3.565,3.565,0,0,1-.282,1.4,3.588,3.588,0,0,1-.77,1.142,3.578,3.578,0,0,1-1.143.769,3.576,3.576,0,0,1-1.4.282Zm1.106-7.1a3.215,3.215,0,0,0,.262,1.319,2.126,2.126,0,0,0,.74.912,1.868,1.868,0,0,0,1.072.325h.028a1.119,1.119,0,0,0,.677-.193.6.6,0,0,0,.263-.5.722.722,0,0,0-.173-.5.577.577,0,0,0-.45-.194h-.344a.572.572,0,0,1-.5-.332,1.665,1.665,0,0,1-.194-.843v-3.262h-1.382Zm3.734-2.363a.9.9,0,0,0,.9.9.9.9,0,0,0,.9-.9.9.9,0,0,0-.9-.9.9.9,0,0,0-.9.9Zm63.422,7.06a2.925,2.925,0,0,1-1.189-1.209,3.984,3.984,0,0,1-.429-1.914v-4.1h1.411v4.1a2.23,2.23,0,0,0,.6,1.692,2.219,2.219,0,0,0,1.6.573,2.361,2.361,0,0,0,1.058-.235,1.878,1.878,0,0,0,.747-.635,1.577,1.577,0,0,0,.269-.9v-4.6h1.411v6.867a.7.7,0,0,1-.194.5.676.676,0,0,1-.512.2.683.683,0,0,1-.5-.2.68.68,0,0,1-.2-.5v-.152a3.078,3.078,0,0,1-1.051.684,3.488,3.488,0,0,1-1.3.242,3.525,3.525,0,0,1-1.715-.415Zm9.4-.1a3.635,3.635,0,0,1-1.376-1.382,3.892,3.892,0,0,1-.5-1.955,4.125,4.125,0,0,1,.462-1.955,3.493,3.493,0,0,1,1.272-1.375,3.376,3.376,0,0,1,1.8-.5,3.41,3.41,0,0,1,1.494.332,3.388,3.388,0,0,1,1.176.926v-4.437H-5554V-55.84a.705.705,0,0,1-.705.7.705.705,0,0,1-.706-.7l0-.065a3.766,3.766,0,0,1-.467.32,3.758,3.758,0,0,1-1.929.5,3.833,3.833,0,0,1-1.942-.5Zm.691-5.582a2.441,2.441,0,0,0-.885.925,2.673,2.673,0,0,0-.326,1.32,2.71,2.71,0,0,0,.326,1.327,2.422,2.422,0,0,0,.885.933,2.373,2.373,0,0,0,1.252.338,2.375,2.375,0,0,0,1.251-.338,2.38,2.38,0,0,0,.878-.933,2.764,2.764,0,0,0,.318-1.326,2.73,2.73,0,0,0-.318-1.32,2.389,2.389,0,0,0-.878-.926,2.374,2.374,0,0,0-1.251-.338,2.372,2.372,0,0,0-1.25.338Zm-19.506,5.6a3.468,3.468,0,0,1-1.355-1.361,4,4,0,0,1-.484-1.976,4.023,4.023,0,0,1,.484-1.99,3.464,3.464,0,0,1,1.355-1.361,3.961,3.961,0,0,1,1.977-.49,3.894,3.894,0,0,1,1.957.49,3.533,3.533,0,0,1,1.355,1.361,3.982,3.982,0,0,1,.491,1.99,4,4,0,0,1-.484,1.976,3.48,3.48,0,0,1-1.348,1.361,3.92,3.92,0,0,1-1.971.49,3.957,3.957,0,0,1-1.977-.492Zm.712-5.6a2.331,2.331,0,0,0-.878.926,2.8,2.8,0,0,0-.318,1.34,2.755,2.755,0,0,0,.318,1.333,2.34,2.34,0,0,0,.878.919,2.433,2.433,0,0,0,1.265.332,2.439,2.439,0,0,0,1.266-.332,2.292,2.292,0,0,0,.871-.919,2.8,2.8,0,0,0,.312-1.333,2.847,2.847,0,0,0-.312-1.34,2.275,2.275,0,0,0-.871-.926,2.44,2.44,0,0,0-1.266-.332,2.436,2.436,0,0,0-1.263.331Zm-13.146,5.6a3.55,3.55,0,0,1-1.362-1.375,3.937,3.937,0,0,1-.491-1.955,4.072,4.072,0,0,1,.477-1.983,3.429,3.429,0,0,1,1.334-1.368,3.831,3.831,0,0,1,1.936-.49,3.437,3.437,0,0,1,2.71,1.243.516.516,0,0,1,.139.359.608.608,0,0,1-.3.511.545.545,0,0,1-.319.1.7.7,0,0,1-.539-.25,2.2,2.2,0,0,0-.753-.546,2.375,2.375,0,0,0-.934-.173,2.254,2.254,0,0,0-1.728.712,2.656,2.656,0,0,0-.665,1.886,2.806,2.806,0,0,0,.312,1.333,2.291,2.291,0,0,0,.871.919,2.459,2.459,0,0,0,1.279.332,2.3,2.3,0,0,0,1.521-.484A.869.869,0,0,1-5587-57a.588.588,0,0,1,.359.123.643.643,0,0,1,.262.5.512.512,0,0,1-.166.373,3.517,3.517,0,0,1-2.49.926,3.888,3.888,0,0,1-1.963-.5Zm-22.971.007a3.469,3.469,0,0,1-1.355-1.361,3.991,3.991,0,0,1-.484-1.976,4.023,4.023,0,0,1,.484-1.99,3.47,3.47,0,0,1,1.355-1.361,3.963,3.963,0,0,1,1.978-.49,3.894,3.894,0,0,1,1.957.49,3.533,3.533,0,0,1,1.355,1.361,3.977,3.977,0,0,1,.491,1.99,4,4,0,0,1-.484,1.976,3.485,3.485,0,0,1-1.349,1.361,3.921,3.921,0,0,1-1.971.49,3.959,3.959,0,0,1-1.976-.491Zm.712-5.6a2.334,2.334,0,0,0-.878.926,2.8,2.8,0,0,0-.318,1.34,2.751,2.751,0,0,0,.319,1.333,2.338,2.338,0,0,0,.878.919,2.435,2.435,0,0,0,1.265.332,2.436,2.436,0,0,0,1.266-.332,2.3,2.3,0,0,0,.871-.919,2.805,2.805,0,0,0,.311-1.333,2.846,2.846,0,0,0-.31-1.34,2.285,2.285,0,0,0-.872-.926,2.438,2.438,0,0,0-1.266-.332,2.438,2.438,0,0,0-1.265.331Zm30.889,6.038a1.858,1.858,0,0,1-1.072-.325,2.107,2.107,0,0,1-.739-.912,3.2,3.2,0,0,1-.263-1.319v-8.236h1.383v8.235a1.645,1.645,0,0,0,.194.843.57.57,0,0,0,.5.332h.345a.574.574,0,0,1,.45.194.716.716,0,0,1,.173.5.591.591,0,0,1-.263.5,1.113,1.113,0,0,1-.677.194Zm-13.906-.2a.685.685,0,0,1-.2-.5v-6.854h1.411v6.853a.7.7,0,0,1-.194.5.678.678,0,0,1-.511.2.687.687,0,0,1-.505-.2Zm-21.083.2a1.861,1.861,0,0,1-1.072-.325,2.116,2.116,0,0,1-.739-.912,3.2,3.2,0,0,1-.263-1.319v-8.236h1.383v8.235a1.65,1.65,0,0,0,.194.843.57.57,0,0,0,.5.332h.345a.574.574,0,0,1,.45.193.721.721,0,0,1,.173.5.593.593,0,0,1-.263.5,1.113,1.113,0,0,1-.678.193Zm20.944-9.057a.876.876,0,0,1-.269-.642.876.876,0,0,1,.269-.642.877.877,0,0,1,.643-.269.876.876,0,0,1,.643.269.875.875,0,0,1,.271.642.877.877,0,0,1-.271.642.876.876,0,0,1-.643.27.877.877,0,0,1-.643-.27Z" transform="translate(5641.003 67.998)" fill="#99b3c5"/>
</svg>
