<svg xmlns="http://www.w3.org/2000/svg" width="111" height="99" viewBox="0 0 111 99">
  <g id="logo" transform="translate(-102.785 -85.095)">
    <path id="Path_89" data-name="Path 89" d="M20264.164,2271.231h0l-17.922-23.466-12.389-8.218h4.361l7.57,4.536,17.922,23.465h0l17.924-22.775,8.563-5.227h4.963l-13.068,8.906-17.926,22.777Zm39.219-37.29h0v-1.688a1.858,1.858,0,0,0-.129-.677l15.242-9.3,1.057.646-16.17,11.023Zm-78.316-.222h0l-16.283-10.8.838-.509,15.525,9.3a1.857,1.857,0,0,0-.08.538v1.466Z" transform="translate(-20105.768 -2087.136)" fill="#b8cfdc"/>
    <path id="Path_90" data-name="Path 90" d="M20246.016,2294.051l-7.572-4.551h-8.336a2.091,2.091,0,0,1,.1.388,2.468,2.468,0,0,1-.57,1.864,1.86,1.86,0,0,1-.84.787,2.707,2.707,0,0,1-1.148.224,7.967,7.967,0,0,1-2.258-.419,2.66,2.66,0,0,1-.383.382l-.107,1.769H20209.3l8.08-4.44-6.113-4.962,9.477-.067-.039-1.359.063-.126a2.06,2.06,0,0,1,1.135-.9,4.505,4.505,0,0,1,1.641-.291,4.629,4.629,0,0,1,1.756.332v-.5a1.83,1.83,0,0,1,.08-.54l-16.592-9.977,36.082-21.927,19.074-27.464,19.994,27.464,35.619,21.927-16.068,9.838a1.863,1.863,0,0,0-.873-.977,1.871,1.871,0,0,1,1,1.656v.463a4.708,4.708,0,0,1,1.662-.294,4.517,4.517,0,0,1,1.639.291,2.049,2.049,0,0,1,1.131.9l.066.126-.006.141v.007q-.018.6-.033,1.21l9.479.067-6.111,4.964,8.078,4.437H20303.9l-.1-1.773a2.444,2.444,0,0,1-.387-.381,7.944,7.944,0,0,1-2.256.419,2.691,2.691,0,0,1-1.143-.224,1.826,1.826,0,0,1-.842-.787,2.474,2.474,0,0,1-.57-1.864,1.943,1.943,0,0,1,.1-.388h-8.281l-8.562,5.244-17.922,22.847Zm2.293,0,15.631,21.463,16.543-21.463,7.338-4.551h-46.984Zm-24.646-.656h.209l0-.065C20223.8,2293.354,20223.73,2293.375,20223.662,2293.4Zm-9.322-7.22,5,4.059-5.752,3.161h8.285a1.751,1.751,0,0,1-.268-.132,1.4,1.4,0,0,1-.66-1.021l0-.031,0-.031-.154-5.531,0-.051-.012-.468Zm93.572,4.5-.045,1.5v.031l0,.031a1.394,1.394,0,0,1-.66,1.021,1.441,1.441,0,0,1-.262.131h8.283l-5.75-3.16,5-4.059-6.434-.046Zm-2.969,2.718h.2c-.066-.019-.135-.04-.207-.064Zm-.779-1.911a1.508,1.508,0,0,0,.723.634,2.859,2.859,0,0,0,1.23.318c.395,0,.619-.108.656-.321.037-1.378.078-2.754.115-4.13q.056-2.013.115-4.024a1.338,1.338,0,0,0-.488-.292,3.5,3.5,0,0,0-1.242-.214,3.413,3.413,0,0,0-1.662.4v1.814c0,2.047.021,3.154,0,3.469,0,.331-.219.362-.381.362h-3.26a1.1,1.1,0,0,0-.283.558,1.427,1.427,0,0,0,.385,1.057l.027.038.023.043c.113.216.332.464,1.035.464a7.967,7.967,0,0,0,2.326-.494l.486-.161Zm-81.867-7.815a1.383,1.383,0,0,0-.488.292l.072,2.607.08,2.72.08,2.826c.037.213.256.321.654.321a2.88,2.88,0,0,0,1.23-.318,1.529,1.529,0,0,0,.723-.634l.193-.478.484.161a7.979,7.979,0,0,0,2.326.494c.707,0,.926-.249,1.037-.464l.023-.043.029-.038a1.426,1.426,0,0,0,.383-1.057,1.123,1.123,0,0,0-.281-.558h-2.779s-.635.065-.67-.36c-.021-.316-.117-2.317-.1-2.883v-2.346a3.341,3.341,0,0,0-1.756-.457A3.482,3.482,0,0,0,20222.3,2283.668Zm4.1-1.487v5.456a.753.753,0,0,0,.744.76h74.635a.753.753,0,0,0,.742-.76v-5.456a.752.752,0,0,0-.742-.76h-74.635A.753.753,0,0,0,20226.393,2282.181Zm-.992-.616a.048.048,0,0,1,.006-.015A.048.048,0,0,0,20225.4,2281.565Zm21.76-31.829-35.619,21.927,14.652,8.919a1.864,1.864,0,0,0-.783.952,1.853,1.853,0,0,1,1.727-1.217h74.635a1.792,1.792,0,0,1,.656.124l-.008,0,14.145-8.775-35.162-21.927-17.463-24.464Zm55.445,30.785-.027-.013Zm-.043-.022-.023-.01Zm-.043-.02-.02-.008Zm-.045-.02-.016-.006Zm-35.9,19.932v-5.876h.705v.551a1.7,1.7,0,0,1,.564-.484,1.636,1.636,0,0,1,.76-.163,1.9,1.9,0,0,1,1.031.28,1.724,1.724,0,0,1,.676.791,2.674,2.674,0,0,1,.229,1.119,2.633,2.633,0,0,1-.252,1.173,1.784,1.784,0,0,1-.729.8,2.013,2.013,0,0,1-1.014.278,1.574,1.574,0,0,1-.693-.151,1.617,1.617,0,0,1-.5-.385v2.067Zm1.078-4.979a1.863,1.863,0,0,0-.377,1.252,1.765,1.765,0,0,0,.357,1.213,1.129,1.129,0,0,0,.863.391,1.142,1.142,0,0,0,.881-.407,2.278,2.278,0,0,0,.012-2.474,1.109,1.109,0,0,0-.857-.405A1.148,1.148,0,0,0,20267.648,2295.414Zm-5.639,2.874a2.142,2.142,0,0,1-.586-1.609,2.246,2.246,0,0,1,.59-1.664,2.076,2.076,0,0,1,1.537-.594,2.025,2.025,0,0,1,1.494.58,2.207,2.207,0,0,1,.584,1.632c0,.044,0,.107-.006.192h-3.4a1.547,1.547,0,0,0,.426,1.072,1.316,1.316,0,0,0,.955.373,1.256,1.256,0,0,0,.725-.208,1.383,1.383,0,0,0,.475-.666l.8.093a1.827,1.827,0,0,1-.7,1.013,2.24,2.24,0,0,1-1.3.359A2.155,2.155,0,0,1,20262.01,2298.287Zm.654-2.943a1.264,1.264,0,0,0-.4.888h2.547a1.393,1.393,0,0,0-.291-.8,1.221,1.221,0,0,0-.959-.416A1.278,1.278,0,0,0,20262.664,2295.344Zm8.791,3.421v-4.248h.771v1.66h.982a2.647,2.647,0,0,1,1.475.346,1.088,1.088,0,0,1,.514.955,1.167,1.167,0,0,1-.428.909,2.069,2.069,0,0,1-1.381.377Zm.771-.593h.813a2.38,2.38,0,0,0,1.049-.167.555.555,0,0,0,.313-.523.657.657,0,0,0-.23-.493,1.648,1.648,0,0,0-1.025-.217h-.918Zm-15.123.593v-4.248h1.783a3.487,3.487,0,0,1,.979.1,1.208,1.208,0,0,1,.551.373,1.068,1.068,0,0,1,.092,1.183.39.39,0,1,0,.129.751,1.015,1.015,0,0,1,.213.651,1.1,1.1,0,0,1-.463.9,2.144,2.144,0,0,1-1.223.291Zm.775-.593h1.018a1.958,1.958,0,0,0,.9-.141.54.54,0,0,0,.256-.49.59.59,0,0,0-.139-.379.628.628,0,0,0-.367-.219,4.054,4.054,0,0,0-.734-.047h-.934Zm0-1.867h.822a3.287,3.287,0,0,0,.684-.047.745.745,0,0,0,.328-.194.531.531,0,0,0-.109-.818,2.024,2.024,0,0,0-.875-.134h-.85Zm-4.066,2.46v-5.172h-2.076v-.693h5v.693h-2.092v5.172Zm12.5-11.315c-.451-.04-.51-.344-.588-1.554-.037-.6-.057-1.153-.531-1.153h-.275v2.466h.379v.175h-1.443v-.175h.371v-4.859h-.371v-.175h1.443v.175h-.379v2.219h.236c.268,0,.443-.08.465-.923.031-1.24.184-1.535.615-1.535.4,0,.535.413.535.684,0,.342-.143.644-.4.644s-.363-.269-.363-.493a.986.986,0,0,1,.006-.135.98.98,0,0,0,.037-.205c0-.064.006-.145-.064-.145-.221,0-.209.78-.221,1.186-.016.549-.066.764-.232.931l.008.032c.217.009.854.118.926,1.264.033.565-.033,1.287.219,1.287a.15.15,0,0,0,.115-.07l.018.035a.341.341,0,0,1-.207.083v.175h.02a.723.723,0,0,1-.191.066.593.593,0,0,1-.064.005A.6.6,0,0,1,20266.309,2287.449Zm24.42-1.028c0-.406.215-.644.428-.644.191,0,.387.222.387.58a.621.621,0,0,1-.17.462c-.086.08-.252.111-.252.222,0,.1.111.231.332.231.137,0,.35-.049.51-.613l-1.221-4.311h-.227l-.006-.175h1.344v.175h-.338l.836,3,.455-2.037a2.67,2.67,0,0,0,.09-.588c0-.374-.25-.374-.3-.374h-.066v-.175h.83v.175h.133a.742.742,0,0,0-.445.629l-.736,3.037c-.2.813-.377,1.434-.859,1.434C20291.039,2287.449,20290.729,2286.97,20290.729,2286.421Zm-21.191.962h.039v-.175h-.26l.057-.127c.08.047.113.071.145.071.314,0,.219-1.01.277-1.456a1,1,0,0,1,.875-1v-.064a1.092,1.092,0,0,1-.973-1.248,1.065,1.065,0,0,1,1.229-1.209h1.547v.175h-.379v4.859h.379v.175h-1.451v-.175h.379v-2.457h-.391c-.514,0-.479.547-.523,1.337-.066,1.12-.2,1.361-.654,1.361A.632.632,0,0,1,20269.537,2287.383Zm.943-4.167v.46c0,.875.363.9.613.9h.307v-2.227h-.326C20270.475,2282.349,20270.48,2283,20270.48,2283.216Zm-9.381,1.511c0-1.2.564-2.617,1.434-2.617a1.319,1.319,0,0,1,.59.191.3.3,0,0,0,.109.033c.043,0,.129-.033.154-.159h.166v1.677h-.125c-.117-.978-.479-1.566-.881-1.566-.7,0-.668,1.384-.668,1.87l-.006,1.089c0,1.607.365,2.028.668,2.028.328,0,.82-.444.924-1.734h.158l-.039,1.845h-.156c-.057-.166-.125-.2-.2-.2-.1,0-.186.08-.289.143a.625.625,0,0,1-.371.123C20261.637,2287.449,20261.1,2285.992,20261.1,2284.727Zm-30.779,0c0-1.2.563-2.617,1.434-2.617a1.344,1.344,0,0,1,.592.191.287.287,0,0,0,.111.033c.043,0,.125-.033.15-.159h.166v1.677h-.129c-.113-.978-.477-1.566-.877-1.566-.7,0-.668,1.384-.668,1.87l-.006,1.089c0,1.607.363,2.028.666,2.028.328,0,.822-.444.926-1.734h.156l-.031,1.649a.379.379,0,0,1-.1.022v.175h-.066c-.049-.166-.121-.2-.187-.2a.638.638,0,0,0-.291.143.65.65,0,0,1-.375.123C20230.857,2287.449,20230.32,2285.992,20230.32,2284.727Zm67.287,2.656v-.175h.361l-.285-1.343h-.939l-.07.341c0,.033-.012.073-.059.4a.96.96,0,0,0,0,.317c.059.231.182.255.406.287v.175H20296v-.175c.34-.024.4-.429.494-.891l.867-4.208h.295l1.039,5.1h.266v.175Zm-.836-1.694h.893l-.443-2.164Zm-3.41,1.694v-.175h.377v-4.859h-.244v-.175h1.279c1.055,0,1.361.658,1.361,1.433,0,1.112-.461,1.55-1.385,1.55h-.322v2.052h.424v.175Zm1.066-2.4h.225c.418,0,.7-.048.7-1.153v-.566c0-.549-.047-.914-.652-.914h-.27Zm-6.012,2.4v-.175h.379v-4.859h-.119c-.42,0-.676.6-.771,1.509h-.166l.033-1.684h2.688v.175h.057l.029,1.509h-.168c-.051-.507-.244-1.509-.766-1.509h-.125v4.859h.381v.175Zm-1.865,0v-.175h.367l-.289-1.343h-.932l-.072.341c-.006.033-.014.073-.059.4a.866.866,0,0,0,0,.317c.059.231.176.255.4.287v.175h-.975v-.175h-.043c.342-.024.4-.429.494-.891l.861-4.208h.3l1.037,5.1h.27v.175Zm-.832-1.694h.889l-.441-2.164Zm-.77,1.694h0Zm-1.4,0v-.175h.383V2282.6l-.982,4.787h-.09l-1-4.787v3.595c0,.722.094,1,.352,1.018v.175h-.885v-.175c.328-.064.395-.47.395-1.049v-3.023c0-.525-.016-.747-.367-.787v-.175h1.121l.707,3.339.7-3.339h1.105v.175h-.373v4.859h.33v.175Zm-5.174,0v-.175h-.045v.175h-1.312v-.175h.365l-.289-1.343h-.936l-.07.341c-.008.033-.014.073-.059.4a1.079,1.079,0,0,0,0,.317c.059.231.18.255.406.287v.175h-1.02v-.175c.338-.024.4-.429.492-.891l.867-4.208h.291l1.041,5.1h.6v-4.859h-.379v-.175h1.414c1.059,0,1.365.658,1.365,1.433,0,1.112-.461,1.55-1.391,1.55h-.318v2.052h.424v.175Zm-2.189-1.694h.887l-.439-2.164Zm3.215-.707h.229c.412,0,.7-.048.7-1.153v-.566c0-.549-.051-.914-.652-.914h-.271Zm-1.07,2.4h0Zm-10.115,0v-.175h.365l-.287-1.343h-.937l-.07.341c-.006.033-.014.073-.059.4a.825.825,0,0,0,0,.317c.059.231.18.255.4.287v.175h-1a.7.7,0,0,0,.229-.175l-.041-.083a1.578,1.578,0,0,0,.291-.808l.865-4.208h.295l1.041,5.1h.01l0,.009a.814.814,0,0,0,.225.166Zm-.834-1.694h.893l-.445-2.164Zm-9.18,1.694v-.175h.371v-4.859h-.371v-.175h2.564l.031,1.67h-.16c-.037-.533-.205-1.5-.943-1.5h-.426v2.084h.3c.309,0,.471-.526.463-.948h.156v2.084h-.156c-.014-.883-.3-.961-.463-.961h-.3v2.6h.426c.572,0,.949-.787,1.027-1.55h.152l-.045,1.725Zm-1.754,0v-.175h.379v-2.178a1.329,1.329,0,0,1-.85.38c-.678,0-.748-.668-.748-1.346v-1.716h-.375v-.175h1.379v.175h-.312v1.822c0,.556.012.954.363.954a1.385,1.385,0,0,0,.543-.27v-2.506h-.318v-.175h1.379v.175h-.373v4.859h.373v.175Zm-3.113,0v-.175h.314v-3.937l-1.047,3.612v.325h.316v.175h-1.387v-.175h.379v-4.859h-.379v-.175h1.387v.175h-.316v3.96l1.047-3.595v-.365h-.314v-.175h1.385v.175h-.379v4.859h.379v.175Zm-3.5,0v-.175h.316v-2.49h-1.045v2.49h.314v.175h-1.379v-.175h.373v-4.859h-.373v-.175h1.379v.175h-.314v2.2h1.045v-2.2h-.316v-.175h1.379v.175h-.369v4.859h.369v.175Zm-3.268,0v-.175h.268l-.752-2.02-.4,1.026a1.766,1.766,0,0,0-.139.478c0,.342.055.525.383.516v.175h-1.16v-.175c.377-.04.492-.373.686-.859l.549-1.376-.984-2.624h-.205v-.175h1.334v.175h-.332l.682,1.844.328-.842a1.953,1.953,0,0,0,.133-.542c0-.253-.107-.469-.318-.46v-.175h1.1v.175c-.3.009-.469.255-.725.938l-.422,1.138,1.02,2.784h.293v.175Zm-4.592,0v-.175h.373v-4.859h-.373v-.175h2.568l.031,1.67h-.162c-.037-.533-.2-1.5-.945-1.5h-.426v2.084h.295c.314,0,.475-.526.467-.948h.156v2.084h-.156c-.014-.883-.3-.961-.467-.961h-.295v2.6h.426c.574,0,.953-.787,1.029-1.55h.154l-.045,1.725Zm-2.311,0v-.175h.379v-4.859h-.125c-.418,0-.676.6-.77,1.509h-.17l.035-1.684h2.746l.035,1.684h-.17c-.049-.507-.244-1.509-.773-1.509h-.123v4.859h.385v.175Zm-2.246,0v-.175h.314v-2.49h-1.045v2.49h.316v.175h-1.336v-.175h-.045v.175h-1.318v-.175h.365l-.287-1.343h-.934l-.072.341c0,.033-.01.073-.057.4a1.016,1.016,0,0,0,0,.317c.057.231.182.255.4.287v.175h-.924l.006-.2c.252-.091.307-.457.393-.869l.865-4.208h.293l1.041,5.1h.6v-4.859h-.371v-.175h1.381v.175h-.316v2.2h1.045v-2.2h-.314v-.175h1.377v.175h-.371v4.859h.371v.175Zm-3.943-1.694h.889l-.439-2.164Zm2.148,1.694h0Zm-2.916,0h0Zm-.521-10.712c-5.4-3.466-2.4-10.423,1.127-14.479,3.031-3.46,7.273-5.925,11.613-6.14a5.175,5.175,0,0,1,4.033,1.391c1.553,1.528.725,4.7-.049,6.444a21.107,21.107,0,0,1-3.877,3.484c-.7,1.2-9.449,2.878-7.529-2.959.74-2.312,4.32-4.852,7.256-4.6l.051.594a6.561,6.561,0,0,0-5.057,2.855c-2.166,3.465.08,5.167,4.41,3.312,1.836-1.83,5.08-5.387,3.324-9.568a2.93,2.93,0,0,0-1.514-.4,5.607,5.607,0,0,0-3.982,1.174c-1.283,1.093-2.75,1.743-4.24,3.576-1.494,1.447-4.311,5.315-4.9,7.109-.982,2.135-1.818,6.062.961,7.67.9,1.025,4.982.912,6.916-.013,2.043,0,5.643-5.764,6.975-7.154l.516.419c-1.76,2.271-3.6,5.5-7.281,7.437a12.306,12.306,0,0,1-4.764.925A6.212,6.212,0,0,1,20232.189,2276.671Zm55.037.143a1.381,1.381,0,0,1,.24-.042c.068-.006.131-.013.182-.023a3.776,3.776,0,0,0,1.275-.3,1.317,1.317,0,0,0,.486-.728.074.074,0,0,1,.016-.039.161.161,0,0,0,.012-.043c.471-1.482.939-2.96,1.416-4.435s.928-2.956,1.367-4.439c-.262.034-.518.077-.762.129l-.713.141a3.5,3.5,0,0,1-.369.084c-.121.023-.24.051-.361.085l-.107-.389c1.51-.508,1.688-.254,2.838-1.38a9.694,9.694,0,0,1,.867-.523,6.847,6.847,0,0,1,.945-.4l.262.12-.445,1.281a10.8,10.8,0,0,1,1.287-.186c.4-.035.764-.05,1.078-.05a5.7,5.7,0,0,1,3.006.615,1.862,1.862,0,0,1,.963,1.64,2.844,2.844,0,0,1-.2.985,4.386,4.386,0,0,1-.6,1.069,6.237,6.237,0,0,1-.67.758,8.746,8.746,0,0,1-.852.722,10.682,10.682,0,0,1-1.787,1,13.032,13.032,0,0,1-2.051.717c-.176.034-.346.068-.514.1s-.328.063-.484.086c-.121,0-.27,0-.434-.008s-.338-.021-.512-.044c-.107-.011-.205-.025-.3-.043s-.186-.034-.273-.056l-.658,2.221c-.033.134-.064.256-.092.364a1.212,1.212,0,0,0-.037.278.344.344,0,0,0,.2.344,1.707,1.707,0,0,0,.646.108l1.363.1V2277l-6.229.2Zm8.041-10.422a5.385,5.385,0,0,0-.539.027,3.847,3.847,0,0,0-.562.093l-1.787,5.69a1.993,1.993,0,0,0,.67.345,3.2,3.2,0,0,0,1.012.142,2.662,2.662,0,0,0,.365-.026c.121-.016.244-.036.367-.055a5.062,5.062,0,0,0,2.564-1.585,3.953,3.953,0,0,0,1.172-2.726,1.538,1.538,0,0,0-.8-1.534,4.381,4.381,0,0,0-1.908-.386h-.277C20295.447,2266.376,20295.354,2266.383,20295.268,2266.391Zm-31.227,6.627a2.6,2.6,0,0,0,.117-.345,1.763,1.763,0,0,0,.092-.234c.027-.081.059-.16.094-.238.09-.245.176-.5.264-.75s.182-.531.289-.834l.975-2.775c.068-.192.125-.355.168-.491a1.167,1.167,0,0,0,.063-.319.174.174,0,0,0-.023-.1.131.131,0,0,0-.105-.034,1.865,1.865,0,0,0-.484.125c-.236.086-.488.189-.75.315a3.671,3.671,0,0,0-.381.192c-.131.073-.25.143-.355.211l-.289-.338,4.766-1.881-1.135,3.428h4.941l.338-.908a.415.415,0,0,0,.039-.108.458.458,0,0,1,.035-.11.923.923,0,0,0,.055-.117.389.389,0,0,0,.025-.12q.185-.5.328-.925c.1-.279.156-.46.174-.539l1.887-.454h.266c-.053.1-.119.252-.2.454s-.16.411-.25.622c-.051.115-.1.219-.139.322s-.086.2-.119.3q-.187.522-.383,1.035t-.381,1.019c-.123.349-.242.693-.355,1.036s-.23.687-.354,1.035c-.053.145-.094.269-.133.369a.857.857,0,0,0-.053.236.094.094,0,0,0,.025.076.163.163,0,0,0,.107.026,2.367,2.367,0,0,0,.553-.143,7.805,7.805,0,0,0,.865-.363c.088-.033.172-.066.246-.1s.158-.068.227-.1a.366.366,0,0,1,.049-.026.2.2,0,0,0,.055-.024l.287.337a7.8,7.8,0,0,1-.691.394c-.256.13-.506.258-.75.379a15.8,15.8,0,0,1-1.523.58,4.226,4.226,0,0,1-.893.229.871.871,0,0,1-.516-.126.411.411,0,0,1-.143-.395,1.713,1.713,0,0,1,.039-.348,3.031,3.031,0,0,1,.121-.412l.912-2.464h-4.912l-.076.225c-.027.082-.1.247-.2.5s-.2.536-.3.851a1.081,1.081,0,0,0-.08.219,1.413,1.413,0,0,1-.08.218c-.072.234-.139.469-.211.7a3.331,3.331,0,0,0-.129.6l-2.154.455C20263.949,2273.247,20264,2273.123,20264.041,2273.018Zm20.23.337a.423.423,0,0,0-.09-.01.689.689,0,0,1-.3-.16.5.5,0,0,1-.146-.4.806.806,0,0,1,.027-.183c.016-.069.037-.142.055-.221l.684-2.156h-.053a17.691,17.691,0,0,1-1.723,1.264q-.905.59-1.877,1.094c-.09.044-.2.1-.346.16s-.295.127-.473.2a.562.562,0,0,1-.131.057c-.053.017-.105.037-.158.058-.209.078-.42.15-.629.209a1.827,1.827,0,0,1-.473.094,1.256,1.256,0,0,1-.262-.026,2.357,2.357,0,0,1-.287-.074,1.4,1.4,0,0,1-.672-.506,1.868,1.868,0,0,1-.3-1.162c0-.091,0-.178.012-.269s.014-.179.014-.271a5.167,5.167,0,0,1,.973-2.248,6.161,6.161,0,0,1,1.893-1.725,10.79,10.79,0,0,1,1.445-.664,11.435,11.435,0,0,1,1.682-.5,9.751,9.751,0,0,1,1.014-.187,7.663,7.663,0,0,1,.986-.066,6.015,6.015,0,0,1,.652.034c.227.02.473.048.736.081l.223.034.252.035c.084.011.18.021.273.025s.189.009.277.009l.131.067c-.084.281-.182.57-.289.868s-.207.6-.314.9c-.193.606-.389,1.227-.58,1.86s-.377,1.271-.553,1.911c-.031.135-.061.246-.076.336a1.115,1.115,0,0,0-.029.219.149.149,0,0,0,.043.112.155.155,0,0,0,.115.04,2.063,2.063,0,0,0,.592-.168q.437-.167.934-.388a.945.945,0,0,0,.186-.075c.053-.029.105-.053.156-.075a.552.552,0,0,1,.051-.026.318.318,0,0,0,.053-.024l.293.337c-.213.134-.445.265-.7.394s-.506.251-.754.364a15.253,15.253,0,0,1-1.561.6,4.626,4.626,0,0,1-.881.229A.579.579,0,0,1,20284.271,2273.355Zm-1.246-6.921a2.614,2.614,0,0,0-.422.11,5.773,5.773,0,0,0-.723.313,3.494,3.494,0,0,0-.746.511c-.158.137-.316.284-.475.446a4.142,4.142,0,0,0-.447.547,2.987,2.987,0,0,0-.238.354c-.068.123-.131.24-.184.355a5.814,5.814,0,0,0-.408,1.177,4.5,4.5,0,0,0-.115.894,1.66,1.66,0,0,0,.17.8.568.568,0,0,0,.537.311,2.648,2.648,0,0,0,.9-.276,8.746,8.746,0,0,0,1.309-.733c.055-.033.105-.065.158-.1l.156-.1c.125-.08.256-.17.4-.27s.283-.208.422-.322a2.65,2.65,0,0,0,.289-.21c.086-.072.172-.144.262-.211a4.436,4.436,0,0,0,.381-.336,2.261,2.261,0,0,0,.279-.318c.049-.082.111-.187.182-.322a4.129,4.129,0,0,0,.209-.455c.055-.113.1-.227.146-.343a3.8,3.8,0,0,0,.117-.363c.09-.259.17-.509.236-.749a3.9,3.9,0,0,0,.133-.581,6.758,6.758,0,0,0-.734-.135,8.815,8.815,0,0,0-1.082-.05h-.232A4.314,4.314,0,0,0,20283.025,2266.434Zm-25.023,6.921a.463.463,0,0,0-.094-.01.717.717,0,0,1-.3-.16.5.5,0,0,1-.143-.4.8.8,0,0,1,.025-.183c.016-.069.035-.142.053-.221l.682-2.156h-.051a18.664,18.664,0,0,1-1.721,1.264c-.605.393-1.229.757-1.881,1.094-.088.044-.2.1-.342.16s-.295.127-.471.2a.646.646,0,0,1-.131.057c-.055.017-.107.037-.158.058-.213.078-.42.15-.629.209a1.869,1.869,0,0,1-.475.094,1.269,1.269,0,0,1-.262-.026,2.607,2.607,0,0,1-.291-.074,1.416,1.416,0,0,1-.672-.506,1.869,1.869,0,0,1-.3-1.162c0-.091.006-.178.014-.269a2.509,2.509,0,0,0,.014-.271,5.117,5.117,0,0,1,.971-2.248,6.177,6.177,0,0,1,1.891-1.725,10.822,10.822,0,0,1,1.447-.664,11.506,11.506,0,0,1,1.682-.5,9.474,9.474,0,0,1,1.014-.187,7.581,7.581,0,0,1,.982-.066,6.253,6.253,0,0,1,.658.034c.225.02.471.048.732.081l.225.034.25.035c.086.011.18.021.275.025s.189.009.275.009l.135.067c-.09.281-.184.57-.291.868s-.211.6-.316.9c-.191.606-.383,1.227-.58,1.86s-.375,1.271-.551,1.911c-.035.135-.061.246-.076.336a1.214,1.214,0,0,0-.025.219.171.171,0,0,0,.035.112.174.174,0,0,0,.121.04,2.023,2.023,0,0,0,.59-.168q.434-.167.936-.388a1.121,1.121,0,0,0,.186-.075,1.367,1.367,0,0,1,.154-.075.266.266,0,0,1,.055-.026.243.243,0,0,0,.051-.024l.287.337c-.209.134-.441.265-.7.394s-.5.251-.75.364a14.774,14.774,0,0,1-1.562.6,4.7,4.7,0,0,1-.879.229A.465.465,0,0,1,20258,2273.355Zm-1.25-6.921a2.535,2.535,0,0,0-.42.11,5.773,5.773,0,0,0-.723.313,3.731,3.731,0,0,0-.752.511c-.156.137-.314.284-.473.446a4.466,4.466,0,0,0-.445.547,2.737,2.737,0,0,0-.234.354,4.007,4.007,0,0,0-.187.355,5.463,5.463,0,0,0-.406,1.177,4.531,4.531,0,0,0-.117.894,1.66,1.66,0,0,0,.17.8.572.572,0,0,0,.541.311,2.665,2.665,0,0,0,.893-.276,8.774,8.774,0,0,0,1.313-.733l.158-.1.156-.1c.125-.08.256-.17.4-.27s.279-.208.42-.322a2.854,2.854,0,0,0,.289-.21c.088-.072.172-.144.262-.211a4.794,4.794,0,0,0,.383-.336,2.654,2.654,0,0,0,.275-.318,3.525,3.525,0,0,0,.182-.322c.07-.134.141-.285.211-.455.051-.113.1-.227.143-.343s.084-.24.121-.363c.086-.259.164-.509.238-.749a3.8,3.8,0,0,0,.129-.581,6.8,6.8,0,0,0-.736-.135,8.709,8.709,0,0,0-1.076-.05h-.236A4.459,4.459,0,0,0,20256.752,2266.434Zm10.725-11.977a1.728,1.728,0,0,1-.541-.719c-.035-.134-.064-.271-.09-.412a2.747,2.747,0,0,1-.033-.413,3.787,3.787,0,0,1,.047-.593,5.875,5.875,0,0,1,.148-.635,3.567,3.567,0,0,1,.777-1.354,1.752,1.752,0,0,1,1.27-.636,1.256,1.256,0,0,1,1.035.629,2.324,2.324,0,0,1,.434,1.34,3.3,3.3,0,0,1-.145.995,3.633,3.633,0,0,1-.836,1.429,1.868,1.868,0,0,1-1.338.688A1.171,1.171,0,0,1,20267.477,2254.458Zm1.262-3.851a6.724,6.724,0,0,0-.5,1.29c-.1.311-.182.661-.262,1.053a4.886,4.886,0,0,0-.119.917.992.992,0,0,0,.072.38c.049.113.109.168.184.168.139,0,.3-.161.471-.486a7.072,7.072,0,0,0,.506-1.27q.149-.592.293-1.186a4.248,4.248,0,0,0,.141-.888.917.917,0,0,0-.072-.349c-.049-.12-.115-.181-.2-.181C20269.1,2250.054,20268.934,2250.24,20268.738,2250.606Zm-5.377,3.851a1.734,1.734,0,0,1-.537-.719,3.553,3.553,0,0,1-.09-.412,2.164,2.164,0,0,1-.039-.413,3.376,3.376,0,0,1,.053-.593,5.843,5.843,0,0,1,.146-.635,3.5,3.5,0,0,1,.781-1.354,1.736,1.736,0,0,1,1.27-.636,1.247,1.247,0,0,1,1.029.629,2.312,2.312,0,0,1,.436,1.34,3.427,3.427,0,0,1-.145.995,3.606,3.606,0,0,1-.834,1.429,1.868,1.868,0,0,1-1.34.688A1.175,1.175,0,0,1,20263.361,2254.458Zm1.268-3.851a6.475,6.475,0,0,0-.5,1.29,9.71,9.71,0,0,0-.262,1.053,5.057,5.057,0,0,0-.119.917.992.992,0,0,0,.072.38c.049.113.109.168.182.168.137,0,.295-.161.473-.486a7.551,7.551,0,0,0,.5-1.27c.1-.395.2-.789.293-1.186a4.282,4.282,0,0,0,.143-.888.921.921,0,0,0-.074-.349c-.047-.12-.115-.181-.2-.181C20264.994,2250.054,20264.82,2250.24,20264.629,2250.606Zm-5.379,3.851a1.728,1.728,0,0,1-.541-.719c-.037-.134-.066-.271-.092-.412a2.52,2.52,0,0,1-.035-.413,4.038,4.038,0,0,1,.047-.593,6.453,6.453,0,0,1,.152-.635,3.5,3.5,0,0,1,.781-1.354,1.742,1.742,0,0,1,1.268-.636,1.247,1.247,0,0,1,1.031.629,2.3,2.3,0,0,1,.436,1.34,3.361,3.361,0,0,1-.143.995,3.676,3.676,0,0,1-.834,1.429,1.872,1.872,0,0,1-1.344.688A1.175,1.175,0,0,1,20259.25,2254.458Zm1.262-3.851a7.132,7.132,0,0,0-.5,1.29c-.1.311-.18.661-.26,1.053a4.886,4.886,0,0,0-.119.917.957.957,0,0,0,.072.38c.049.113.109.168.182.168.139,0,.295-.161.475-.486a7.551,7.551,0,0,0,.5-1.27c.1-.395.2-.789.293-1.186a4.282,4.282,0,0,0,.143-.888.889.889,0,0,0-.076-.349c-.049-.12-.113-.181-.2-.181C20260.879,2250.054,20260.707,2250.24,20260.512,2250.606Z" transform="translate(-20105.998 -2137.178)" fill="#fff"/>
  </g>
</svg>
