<svg xmlns="http://www.w3.org/2000/svg" width="26" height="24" viewBox="0 0 26 24">
  <path id="Path_63" data-name="Path 63" d="M240.52,167.709h-2.167v-4.364a1.094,1.094,0,0,0-.317-.771,1.079,1.079,0,0,0-.766-.32h-3.25V157.89a1.094,1.094,0,0,0-.317-.771,1.079,1.079,0,0,0-.766-.32H219.394a3.778,3.778,0,0,0-2.681,1.118,3.831,3.831,0,0,0-1.11,2.7c0,.126.027.24.038.366a.942.942,0,0,0-.038.18v16.364a3.284,3.284,0,0,0,.952,2.314,3.239,3.239,0,0,0,2.3.958H237.27a1.079,1.079,0,0,0,.766-.32,1.094,1.094,0,0,0,.317-.771v-4.364h2.167a1.08,1.08,0,0,0,.766-.32,1.1,1.1,0,0,0,.317-.771V168.8a1.1,1.1,0,0,0-.317-.771,1.08,1.08,0,0,0-.766-.32Zm-21.125-8.728h12.459v3.273H219.394a1.623,1.623,0,0,1-1.407-.818,1.646,1.646,0,0,1,0-1.636,1.623,1.623,0,0,1,1.407-.818Zm16.792,19.637H218.852a1.087,1.087,0,0,1-1.083-1.091V164.054a3.773,3.773,0,0,0,1.625.382h16.792v3.273h-1.625a3.786,3.786,0,0,0-3.284,1.909,3.841,3.841,0,0,0,0,3.819,3.786,3.786,0,0,0,3.284,1.909h1.625Zm3.25-5.455h-4.875a1.623,1.623,0,0,1-1.408-.818,1.646,1.646,0,0,1,0-1.636,1.623,1.623,0,0,1,1.408-.818h4.875Z" transform="translate(-215.603 -156.8)"/>
</svg>
