<svg xmlns="http://www.w3.org/2000/svg" width="16" height="16" viewBox="0 0 16 16">
  <path id="Path_47" data-name="Path 47" d="M216.269,161.6h14.667a.666.666,0,0,0,.667-.667v-1.38a2.667,2.667,0,0,0-1.787-2.517l-3.547-1.243v-.57a4.877,4.877,0,0,0,1.333-3.333v-2.983a4.07,4.07,0,0,0-8,.027v2.957a4.877,4.877,0,0,0,1.333,3.333v.57l-3.547,1.243a2.667,2.667,0,0,0-1.787,2.517v1.38a.666.666,0,0,0,.667.667Zm.667-2.047a1.333,1.333,0,0,1,.893-1.26l4-1.4a.667.667,0,0,0,.44-.63v-1.333a.667.667,0,0,0-.21-.487,3.532,3.532,0,0,1-1.123-2.557v-2.93a2.542,2.542,0,0,1,2.667-2.027c1.377,0,2.623.947,2.667,2v2.957a3.534,3.534,0,0,1-1.123,2.57.667.667,0,0,0-.21.473v1.333a.667.667,0,0,0,.447.63l4,1.4h0a1.334,1.334,0,0,1,.887,1.26v.713H216.935Z" transform="translate(-215.602 -145.603)" fill="#fff"/>
</svg>
